<?xml version="1.0" encoding="UTF-8"?>
<svg id="Layer_2" data-name="Layer 2" xmlns="http://www.w3.org/2000/svg" viewBox="0 0 1000 1000">
  <defs>
    <style>
      .cls-1 {
        fill: #5552ff;
      }

      .cls-1, .cls-2, .cls-3, .cls-4 {
        stroke-width: 0px;
      }

      .cls-3 {
        fill: #fff;
      }

      .cls-4 {
        fill: #121235;
      }
    </style>
  </defs>
  <g id="Layer_1-2" data-name="Layer 1">
    <g>
      <rect class="cls-3" width="1000" height="1000"/>
      <g>
        <g>
          <g>
            <g>
              <rect class="cls-1" x="301.06" y="329.26" width="99.49" height="99.49" transform="translate(-165.25 359.07) rotate(-45)"/>
              <path class="cls-3" d="M350.81,312.9l66.11,66.11-66.11,66.11-66.11-66.11,66.11-66.11M350.81,304.41l-74.59,74.6,74.59,74.6,74.6-74.6-74.6-74.6h0Z"/>
            </g>
            <g>
              <rect class="cls-1" x="375.66" y="403.86" width="99.49" height="99.49" transform="translate(-196.15 433.66) rotate(-45)"/>
              <path class="cls-3" d="M425.4,387.49l66.11,66.11-66.11,66.11-66.11-66.11,66.11-66.11M425.4,379.01l-74.6,74.6,74.6,74.6,74.6-74.6-74.6-74.6h0Z"/>
            </g>
            <g>
              <rect class="cls-1" x="450.25" y="329.26" width="99.49" height="99.49" transform="translate(-121.55 464.56) rotate(-45)"/>
              <path class="cls-3" d="M500,312.9l66.11,66.11-66.11,66.11-66.11-66.11,66.11-66.11M500,304.41l-74.6,74.6,74.6,74.6,74.6-74.6-74.6-74.6h0Z"/>
            </g>
            <g>
              <rect class="cls-1" x="524.85" y="403.85" width="99.49" height="99.49" transform="translate(-152.45 539.15) rotate(-45)"/>
              <path class="cls-3" d="M574.6,387.49l66.11,66.11-66.11,66.11-66.11-66.11,66.11-66.11M574.6,379.01l-74.6,74.6,74.6,74.6,74.6-74.6-74.6-74.6h0Z"/>
            </g>
            <g>
              <rect class="cls-1" x="599.44" y="329.26" width="99.49" height="99.49" transform="translate(-77.86 570.05) rotate(-45)"/>
              <path class="cls-3" d="M649.19,312.9l66.11,66.11-66.11,66.11-66.11-66.11,66.11-66.11M649.19,304.41l-74.6,74.6,74.6,74.6,74.59-74.6-74.59-74.6h0Z"/>
            </g>
          </g>
          <path class="cls-2" d="M649.19,304.41l74.59,74.59-74.59,74.6-74.6,74.59-74.59-74.59-74.59,74.59-74.59-74.59-74.59-74.6,74.59-74.59,74.59,74.59,74.59-74.59,74.59,74.59,74.6-74.59M500,297.34l-3.54,3.54-71.06,71.06-71.06-71.06-3.54-3.54-3.54,3.54-74.59,74.59-3.54,3.54,3.54,3.54,74.59,74.6,74.59,74.59,3.54,3.54,3.54-3.54,71.06-71.06,71.06,71.06,3.54,3.54,3.54-3.54,74.6-74.59,74.59-74.6,3.54-3.54-3.54-3.54-74.59-74.59-3.54-3.54-3.54,3.54-71.07,71.06-71.06-71.06-3.54-3.54h0Z"/>
        </g>
        <g>
          <path class="cls-4" d="M229.71,673.09c-5.48,0-10.05-.93-13.71-2.78-3.67-1.85-6.38-4.57-8.15-8.15-1.77-3.58-2.65-8.03-2.65-13.34v-26.92h-6.57c-2.02,0-3.58-.53-4.68-1.58-1.09-1.05-1.64-2.51-1.64-4.36s.55-3.41,1.64-4.42c1.09-1.01,2.65-1.52,4.68-1.52h6.57v-11.5c0-2.61.7-4.59,2.09-5.94,1.39-1.35,3.35-2.02,5.88-2.02s4.47.68,5.81,2.02c1.35,1.35,2.02,3.33,2.02,5.94v11.5h13.4c2.02,0,3.58.51,4.68,1.52,1.09,1.01,1.64,2.49,1.64,4.42s-.55,3.31-1.64,4.36c-1.1,1.06-2.65,1.58-4.68,1.58h-13.4v26.04c0,4.04.89,7.08,2.65,9.1,1.77,2.02,4.63,3.03,8.6,3.03,1.43,0,2.7-.13,3.79-.38,1.09-.25,2.06-.42,2.91-.51,1.01-.08,1.85.23,2.53.95.67.72,1.01,2.17,1.01,4.36,0,1.69-.27,3.18-.82,4.49-.55,1.31-1.54,2.21-2.97,2.72-1.1.34-2.53.65-4.3.95-1.77.29-3.33.44-4.68.44Z"/>
          <path class="cls-4" d="M257.77,672.84c-2.53,0-4.47-.69-5.81-2.08-1.35-1.39-2.02-3.39-2.02-6v-75.08c0-2.61.67-4.59,2.02-5.94,1.35-1.35,3.29-2.02,5.81-2.02s4.49.68,5.88,2.02c1.39,1.35,2.09,3.33,2.09,5.94v32.74h-1.77c1.85-4.47,4.74-7.86,8.66-10.18,3.92-2.32,8.36-3.48,13.33-3.48s9.06.93,12.26,2.78c3.2,1.85,5.6,4.66,7.2,8.41,1.6,3.75,2.4,8.49,2.4,14.22v30.59c0,2.61-.68,4.61-2.02,6-1.35,1.39-3.29,2.08-5.81,2.08s-4.49-.69-5.88-2.08c-1.39-1.39-2.09-3.39-2.09-6v-29.83c0-4.8-.91-8.3-2.72-10.49-1.81-2.19-4.61-3.29-8.41-3.29-4.63,0-8.32,1.45-11.06,4.36-2.74,2.91-4.11,6.76-4.11,11.57v27.68c0,5.39-2.65,8.09-7.96,8.09Z"/>
          <path class="cls-4" d="M354.33,673.09c-7,0-13.02-1.31-18.07-3.92-5.06-2.61-8.95-6.32-11.69-11.12-2.74-4.8-4.11-10.49-4.11-17.06s1.33-12.01,3.98-16.81c2.65-4.8,6.32-8.57,11-11.31,4.68-2.74,10-4.11,15.99-4.11,4.38,0,8.32.72,11.82,2.15,3.5,1.43,6.49,3.5,8.97,6.19,2.48,2.7,4.38,5.96,5.69,9.8,1.31,3.84,1.96,8.15,1.96,12.96,0,1.52-.53,2.68-1.58,3.48-1.05.8-2.55,1.2-4.49,1.2h-40.57v-9.1h35.52l-2.02,1.9c0-3.87-.57-7.12-1.71-9.73-1.14-2.61-2.78-4.61-4.93-6-2.15-1.39-4.82-2.09-8.03-2.09-3.54,0-6.55.82-9.04,2.46-2.49,1.64-4.38,3.96-5.69,6.95-1.31,2.99-1.96,6.55-1.96,10.68v.89c0,6.91,1.62,12.07,4.87,15.48,3.24,3.41,8.03,5.12,14.35,5.12,2.19,0,4.65-.27,7.39-.82,2.74-.55,5.33-1.49,7.77-2.84,1.77-1.01,3.33-1.45,4.68-1.33,1.35.13,2.42.61,3.22,1.45.8.84,1.28,1.88,1.45,3.1.17,1.22-.06,2.46-.69,3.73-.63,1.26-1.71,2.36-3.22,3.29-2.95,1.85-6.34,3.22-10.17,4.11-3.84.89-7.39,1.33-10.68,1.33Z"/>
          <path class="cls-4" d="M416.26,672.84c-2.11,0-3.92-.53-5.43-1.58-1.52-1.05-2.74-2.72-3.67-4.99l-18.33-46.77c-.76-2.02-.99-3.81-.69-5.37.29-1.56,1.07-2.8,2.34-3.73,1.26-.93,2.95-1.39,5.06-1.39,1.85,0,3.37.44,4.55,1.33,1.18.88,2.19,2.55,3.03,4.99l15.29,42.09h-2.91l15.8-43.1c.67-1.85,1.58-3.2,2.72-4.04,1.14-.84,2.63-1.26,4.49-1.26s3.37.44,4.55,1.33c1.18.88,2.06,2.21,2.65,3.98l15.55,43.1h-2.65l15.42-42.47c.84-2.28,1.92-3.83,3.22-4.68,1.31-.84,2.76-1.26,4.36-1.26,2.02,0,3.58.51,4.68,1.52,1.09,1.01,1.73,2.3,1.9,3.86.17,1.56-.13,3.27-.88,5.12l-18.2,46.77c-.84,2.19-2.04,3.84-3.6,4.93-1.56,1.09-3.39,1.64-5.5,1.64s-3.94-.55-5.5-1.64c-1.56-1.09-2.76-2.74-3.6-4.93l-16.56-43.86h7.2l-16.18,43.73c-.84,2.28-2.02,3.96-3.54,5.06-1.52,1.09-3.37,1.64-5.56,1.64Z"/>
          <path class="cls-4" d="M530.65,673.09c-7,0-13.02-1.31-18.07-3.92-5.06-2.61-8.95-6.32-11.69-11.12-2.74-4.8-4.11-10.49-4.11-17.06s1.33-12.01,3.98-16.81c2.65-4.8,6.32-8.57,11-11.31,4.68-2.74,10-4.11,15.99-4.11,4.38,0,8.32.72,11.82,2.15,3.5,1.43,6.49,3.5,8.97,6.19,2.48,2.7,4.38,5.96,5.69,9.8,1.31,3.84,1.96,8.15,1.96,12.96,0,1.52-.53,2.68-1.58,3.48-1.05.8-2.55,1.2-4.49,1.2h-40.57v-9.1h35.52l-2.02,1.9c0-3.87-.57-7.12-1.71-9.73-1.14-2.61-2.78-4.61-4.93-6-2.15-1.39-4.82-2.09-8.03-2.09-3.54,0-6.55.82-9.04,2.46-2.49,1.64-4.38,3.96-5.69,6.95-1.31,2.99-1.96,6.55-1.96,10.68v.89c0,6.91,1.62,12.07,4.87,15.48,3.24,3.41,8.03,5.12,14.35,5.12,2.19,0,4.65-.27,7.39-.82,2.74-.55,5.33-1.49,7.77-2.84,1.77-1.01,3.33-1.45,4.68-1.33,1.35.13,2.42.61,3.22,1.45.8.84,1.28,1.88,1.45,3.1.17,1.22-.06,2.46-.69,3.73-.63,1.26-1.71,2.36-3.22,3.29-2.95,1.85-6.34,3.22-10.17,4.11-3.84.89-7.39,1.33-10.68,1.33Z"/>
          <path class="cls-4" d="M604.33,673.09c-5.23,0-9.8-1.31-13.71-3.92-3.92-2.61-6.51-6.11-7.77-10.49l1.39-3.16v9.23c0,2.61-.68,4.61-2.02,6-1.35,1.39-3.24,2.08-5.69,2.08s-4.47-.69-5.81-2.08c-1.35-1.39-2.02-3.39-2.02-6v-75.08c0-2.61.67-4.59,2.02-5.94s3.29-2.02,5.81-2.02,4.49.68,5.88,2.02c1.39,1.35,2.09,3.33,2.09,5.94v32.86h-1.52c1.35-4.13,3.96-7.46,7.84-9.98,3.87-2.53,8.38-3.79,13.52-3.79,5.48,0,10.24,1.31,14.28,3.92,4.04,2.61,7.2,6.3,9.48,11.06,2.27,4.76,3.41,10.47,3.41,17.13s-1.14,12.28-3.41,17.13c-2.28,4.85-5.46,8.58-9.54,11.19-4.09,2.61-8.83,3.92-14.22,3.92ZM599.91,661.08c3.12,0,5.86-.76,8.22-2.27,2.36-1.52,4.19-3.77,5.5-6.76,1.31-2.99,1.96-6.72,1.96-11.19,0-6.74-1.43-11.77-4.3-15.1-2.87-3.33-6.66-4.99-11.38-4.99-3.12,0-5.86.74-8.22,2.21-2.36,1.47-4.19,3.71-5.5,6.7-1.31,2.99-1.96,6.72-1.96,11.19,0,6.66,1.43,11.69,4.3,15.1,2.86,3.41,6.66,5.12,11.38,5.12Z"/>
          <path class="cls-4" d="M652.36,695.59c-2.53,0-4.47-.68-5.81-2.02-1.35-1.35-2.02-3.33-2.02-5.94v-70.65c0-2.61.67-4.59,2.02-5.94s3.24-2.02,5.69-2.02,4.47.68,5.81,2.02c1.35,1.35,2.02,3.33,2.02,5.94v9.86l-1.39-3.79c1.26-4.3,3.86-7.75,7.77-10.36,3.92-2.61,8.49-3.92,13.71-3.92s10.13,1.31,14.22,3.92c4.09,2.61,7.27,6.3,9.54,11.06,2.27,4.76,3.41,10.47,3.41,17.13s-1.14,12.28-3.41,17.13c-2.28,4.85-5.44,8.58-9.48,11.19-4.04,2.61-8.81,3.92-14.28,3.92-5.14,0-9.65-1.28-13.52-3.86-3.88-2.57-6.49-5.92-7.84-10.05h1.52v28.44c0,2.61-.69,4.59-2.09,5.94-1.39,1.35-3.35,2.02-5.88,2.02ZM675.75,661.08c3.12,0,5.86-.76,8.22-2.27,2.36-1.52,4.19-3.77,5.5-6.76,1.31-2.99,1.96-6.72,1.96-11.19,0-6.74-1.43-11.77-4.3-15.1-2.87-3.33-6.66-4.99-11.38-4.99-3.12,0-5.86.74-8.22,2.21-2.36,1.47-4.19,3.71-5.5,6.7-1.31,2.99-1.96,6.72-1.96,11.19,0,6.66,1.43,11.69,4.3,15.1,2.86,3.41,6.66,5.12,11.38,5.12Z"/>
          <path class="cls-4" d="M728.2,597.38c-2.95,0-5.25-.74-6.89-2.21-1.64-1.47-2.46-3.52-2.46-6.13s.82-4.76,2.46-6.19c1.64-1.43,3.94-2.15,6.89-2.15s5.35.72,6.95,2.15c1.6,1.43,2.4,3.5,2.4,6.19s-.8,4.66-2.4,6.13c-1.6,1.48-3.92,2.21-6.95,2.21ZM728.2,672.71c-2.53,0-4.47-.76-5.81-2.27-1.35-1.52-2.02-3.62-2.02-6.32v-46.39c0-2.78.67-4.91,2.02-6.38,1.35-1.47,3.29-2.21,5.81-2.21s4.49.74,5.88,2.21c1.39,1.48,2.08,3.6,2.08,6.38v46.39c0,2.7-.68,4.8-2.02,6.32-1.35,1.52-3.33,2.27-5.94,2.27Z"/>
          <path class="cls-4" d="M756.89,672.46c-1.85,0-3.39-.53-4.61-1.58-1.22-1.05-1.85-2.42-1.9-4.11-.04-1.69.65-3.45,2.08-5.31l20.48-25.28v7.46l-19.21-23.64c-1.52-1.85-2.23-3.62-2.15-5.31.08-1.68.74-3.05,1.96-4.11,1.22-1.05,2.76-1.58,4.61-1.58s3.56.34,4.87,1.01c1.31.68,2.51,1.73,3.6,3.16l15.17,19.46h-5.56l15.29-19.46c1.18-1.43,2.4-2.48,3.67-3.16,1.26-.67,2.82-1.01,4.68-1.01s3.5.55,4.68,1.64c1.18,1.1,1.79,2.49,1.83,4.17.04,1.69-.7,3.46-2.21,5.31l-19.09,23.38v-7.08l20.48,25.03c1.52,1.77,2.23,3.5,2.15,5.18-.08,1.69-.74,3.08-1.96,4.17-1.22,1.09-2.8,1.64-4.74,1.64s-3.41-.34-4.68-1.01c-1.26-.67-2.49-1.73-3.67-3.16l-16.43-20.73h5.31l-16.3,20.73c-1.1,1.35-2.28,2.38-3.54,3.1-1.26.72-2.87,1.08-4.8,1.08Z"/>
        </g>
      </g>
    </g>
  </g>
</svg>