<?xml version="1.0" encoding="UTF-8"?>
<svg id="Layer_2" data-name="Layer 2" xmlns="http://www.w3.org/2000/svg" xmlns:xlink="http://www.w3.org/1999/xlink" viewBox="0 0 500 310">
  <defs>
    <style>
      .cls-1 {
        fill: #5552ff;
      }

      .cls-1, .cls-2, .cls-3, .cls-4 {
        stroke-width: 0px;
      }

      .cls-3 {
        fill: none;
      }

      .cls-4 {
        fill: #fff;
      }

      .cls-5 {
        clip-path: url(#clippath);
      }
    </style>
    <clipPath id="clippath">
      <rect class="cls-3" width="500" height="310"/>
    </clipPath>
  </defs>
  <g id="Layer_2-2" data-name="Layer 2">
    <g class="cls-5">
      <g>
        <g>
          <g>
            <rect class="cls-1" x="62.48" y="72.95" width="93.78" height="93.78" transform="translate(-52.71 112.44) rotate(-45)"/>
            <path class="cls-4" d="M109.38,57.53l62.31,62.31-62.31,62.31-62.31-62.31,62.31-62.31M109.38,49.52L39.07,119.84l70.31,70.32,70.32-70.32L109.38,49.52h0Z"/>
          </g>
          <g>
            <rect class="cls-1" x="132.8" y="143.26" width="93.78" height="93.78" transform="translate(-81.83 182.75) rotate(-45)"/>
            <path class="cls-4" d="M179.69,127.83l62.31,62.31-62.31,62.31-62.31-62.31,62.31-62.31M179.69,119.84l-70.32,70.32,70.32,70.32,70.32-70.32-70.32-70.32h0Z"/>
          </g>
          <g>
            <rect class="cls-1" x="203.11" y="72.95" width="93.78" height="93.78" transform="translate(-11.51 211.88) rotate(-45)"/>
            <path class="cls-4" d="M250,57.53l62.31,62.31-62.31,62.31-62.31-62.31,62.31-62.31M250,49.52l-70.32,70.32,70.32,70.32,70.32-70.32-70.32-70.32h0Z"/>
          </g>
          <g>
            <rect class="cls-1" x="273.42" y="143.25" width="93.78" height="93.78" transform="translate(-40.63 282.19) rotate(-45)"/>
            <path class="cls-4" d="M320.32,127.83l62.31,62.31-62.31,62.31-62.31-62.31,62.31-62.31M320.32,119.84l-70.32,70.32,70.32,70.32,70.32-70.32-70.32-70.32h0Z"/>
          </g>
          <g>
            <rect class="cls-1" x="343.73" y="72.95" width="93.78" height="93.78" transform="translate(29.67 311.31) rotate(-45)"/>
            <path class="cls-4" d="M390.63,57.53l62.31,62.31-62.31,62.31-62.31-62.31,62.31-62.31M390.63,49.52l-70.32,70.32,70.32,70.32,70.31-70.32-70.31-70.32h0Z"/>
          </g>
        </g>
        <path class="cls-2" d="M390.63,49.52l70.31,70.31-70.31,70.32-70.32,70.31-70.31-70.31-70.31,70.31-70.31-70.31L39.08,119.83,109.39,49.52l70.31,70.31,70.31-70.31,70.31,70.31,70.32-70.31M250,42.86l-3.34,3.34-66.98,66.98L112.71,46.2l-3.34-3.34-3.34,3.34L35.73,116.5l-3.34,3.34,3.34,3.34,70.31,70.32,70.31,70.31,3.34,3.34,3.34-3.34,66.98-66.98,66.98,66.98,3.34,3.34,3.34-3.34,70.32-70.31,70.31-70.32,3.34-3.34-3.34-3.34-70.31-70.31-3.34-3.34-3.34,3.34-66.99,66.98-66.98-66.98-3.34-3.34h.02Z"/>
      </g>
    </g>
  </g>
</svg>