<?xml version="1.0" encoding="UTF-8"?>
<svg id="Layer_2" data-name="Layer 2" xmlns="http://www.w3.org/2000/svg" viewBox="0 0 3535.67 490.62">
  <defs>
    <style>
      .cls-1 {
        fill: #5552ff;
      }

      .cls-1, .cls-2, .cls-3, .cls-4 {
        stroke-width: 0px;
      }

      .cls-3 {
        fill: #fff;
      }

      .cls-4 {
        fill: #121235;
      }
    </style>
  </defs>
  <g id="Layer_2-2" data-name="Layer 2">
    <g>
      <g>
        <g>
          <g>
            <rect class="cls-1" x="65.83" y="65.83" width="205.14" height="205.14" transform="translate(-69.75 168.4) rotate(-45)"/>
            <path class="cls-3" d="M168.42,32.08l136.31,136.31-136.31,136.31L32.1,168.4,168.42,32.08M168.42,14.58L14.62,168.4l153.8,153.82,153.82-153.82L168.42,14.58h0Z"/>
          </g>
          <g>
            <rect class="cls-1" x="219.65" y="219.63" width="205.14" height="205.14" transform="translate(-133.45 322.22) rotate(-45)"/>
            <path class="cls-3" d="M322.22,185.88l136.31,136.31-136.31,136.31-136.31-136.31,136.31-136.31M322.22,168.4l-153.82,153.82,153.82,153.82,153.82-153.82-153.82-153.82h0Z"/>
          </g>
          <g>
            <rect class="cls-1" x="373.46" y="65.82" width="205.14" height="205.14" transform="translate(20.36 385.93) rotate(-45)"/>
            <path class="cls-3" d="M476.04,32.08l136.31,136.31-136.31,136.31-136.31-136.31L476.04,32.08M476.04,14.58l-153.82,153.82,153.82,153.82,153.82-153.82L476.04,14.58h0Z"/>
          </g>
          <g>
            <rect class="cls-1" x="527.27" y="219.61" width="205.14" height="205.14" transform="translate(-43.34 539.73) rotate(-45)"/>
            <path class="cls-3" d="M629.86,185.88l136.31,136.31-136.31,136.31-136.31-136.31,136.31-136.31M629.86,168.4l-153.82,153.82,153.82,153.82,153.82-153.82-153.82-153.82h0Z"/>
          </g>
          <g>
            <rect class="cls-1" x="681.07" y="65.81" width="205.14" height="205.14" transform="translate(110.46 603.43) rotate(-45)"/>
            <path class="cls-3" d="M783.66,32.08l136.31,136.31-136.31,136.31-136.31-136.31,136.31-136.31M783.66,14.58l-153.82,153.82,153.82,153.82,153.8-153.82L783.66,14.58h0Z"/>
          </g>
        </g>
        <path class="cls-2" d="M783.66,14.58l153.8,153.8-153.8,153.82-153.82,153.8-153.8-153.8-153.8,153.8-153.8-153.8L14.64,168.38,168.44,14.58l153.8,153.8L476.04,14.58l153.8,153.8L783.66,14.58M476.04,0l-7.3,7.3-146.52,146.52L175.7,7.3,168.4,0l-7.3,7.3L7.3,161.1l-7.3,7.3,7.3,7.3,153.8,153.82,153.8,153.8,7.3,7.3,7.3-7.3,146.52-146.52,146.52,146.52,7.3,7.3,7.3-7.3,153.82-153.8,153.8-153.82,7.3-7.3-7.3-7.3L790.96,7.3l-7.3-7.3-7.3,7.3-146.54,146.52L483.3,7.3l-7.3-7.3h.04Z"/>
      </g>
      <g>
        <path class="cls-4" d="M1229.32,384.7c-21.87,0-40.1-3.71-54.71-11.09-14.64-7.38-25.46-18.24-32.52-32.52-7.06-14.28-10.57-32.04-10.57-53.23v-107.42h-26.22c-8.06,0-14.28-2.11-18.67-6.3-4.35-4.19-6.54-10.02-6.54-17.4s2.19-13.61,6.54-17.64,10.57-6.07,18.67-6.07h26.22v-45.89c0-10.41,2.79-18.31,8.34-23.7,5.55-5.39,13.37-8.06,23.46-8.06s17.84,2.71,23.18,8.06c5.39,5.39,8.06,13.29,8.06,23.7v45.89h53.47c8.06,0,14.28,2.04,18.67,6.07,4.35,4.03,6.54,9.94,6.54,17.64s-2.19,13.21-6.54,17.4c-4.39,4.23-10.57,6.3-18.67,6.3h-53.47v103.9c0,16.12,3.55,28.25,10.57,36.31,7.06,8.06,18.47,12.09,34.32,12.09,5.71,0,10.77-.52,15.12-1.52,4.35-1,8.22-1.68,11.61-2.04,4.03-.32,7.38.92,10.1,3.79,2.67,2.87,4.03,8.66,4.03,17.4,0,6.74-1.08,12.69-3.27,17.92-2.19,5.23-6.14,8.82-11.85,10.85-4.39,1.36-10.1,2.59-17.16,3.79-7.06,1.16-13.29,1.76-18.67,1.76h-.04Z"/>
        <path class="cls-4" d="M1341.29,383.71c-10.1,0-17.84-2.75-23.18-8.3-5.39-5.55-8.06-13.53-8.06-23.94V51.88c0-10.41,2.67-18.31,8.06-23.7,5.39-5.39,13.13-8.06,23.18-8.06s17.92,2.71,23.46,8.06c5.55,5.39,8.34,13.29,8.34,23.7v130.64h-7.06c7.38-17.84,18.91-31.36,34.55-40.62,15.64-9.26,33.36-13.89,53.19-13.89s36.15,3.71,48.92,11.09c12.77,7.38,22.34,18.59,28.73,33.56,6.38,14.96,9.58,33.88,9.58,56.74v122.06c0,10.41-2.71,18.39-8.06,23.94-5.39,5.55-13.13,8.3-23.18,8.3s-17.92-2.75-23.46-8.3-8.34-13.53-8.34-23.94v-119.03c0-19.15-3.63-33.12-10.85-41.86-7.22-8.74-18.39-13.13-33.56-13.13-18.47,0-33.2,5.79-44.13,17.4-10.93,11.61-16.4,26.97-16.4,46.17v110.45c0,21.51-10.57,32.28-31.76,32.28l.04-.04Z"/>
        <path class="cls-4" d="M1726.58,384.7c-27.93,0-51.95-5.23-72.1-15.64-20.19-10.41-35.71-25.22-46.65-44.37-10.93-19.15-16.4-41.86-16.4-68.07s5.31-47.92,15.88-67.07c10.57-19.15,25.22-34.2,43.89-45.13,18.67-10.93,39.9-16.4,63.8-16.4,17.48,0,33.2,2.87,47.16,8.58,13.97,5.71,25.9,13.97,35.79,24.7,9.9,10.77,17.48,23.78,22.7,39.1,5.23,15.32,7.82,32.52,7.82,51.71,0,6.07-2.11,10.69-6.3,13.89s-10.17,4.79-17.92,4.79h-161.88v-36.31h141.73l-8.06,7.58c0-15.44-2.27-28.41-6.82-38.82-4.55-10.41-11.09-18.39-19.67-23.94-8.58-5.55-19.23-8.34-32.04-8.34-14.13,0-26.14,3.27-36.07,9.82-9.94,6.54-17.48,15.8-22.7,27.73-5.23,11.93-7.82,26.14-7.82,42.61v3.55c0,27.57,6.46,48.16,19.43,61.77,12.93,13.61,32.04,20.43,57.26,20.43,8.74,0,18.55-1.08,29.49-3.27,10.93-2.19,21.27-5.95,31-11.33,7.06-4.03,13.29-5.79,18.67-5.31,5.39.52,9.66,2.43,12.85,5.79,3.19,3.35,5.11,7.5,5.79,12.37.68,4.87-.24,9.82-2.75,14.88-2.51,5.03-6.82,9.42-12.85,13.13-11.77,7.38-25.3,12.85-40.58,16.4-15.32,3.55-29.49,5.31-42.61,5.31l-.04-.12Z"/>
        <path class="cls-4" d="M1973.69,383.71c-8.42,0-15.64-2.11-21.67-6.3-6.07-4.19-10.93-10.85-14.64-19.91l-73.14-186.62c-3.03-8.06-3.95-15.2-2.75-21.43,1.16-6.22,4.27-11.17,9.34-14.88,5.03-3.71,11.77-5.55,20.19-5.55,7.38,0,13.45,1.76,18.16,5.31,4.71,3.51,8.74,10.17,12.09,19.91l61.01,167.95h-11.61l63.04-171.98c2.67-7.38,6.3-12.77,10.85-16.12,4.55-3.35,10.49-5.03,17.92-5.03s13.45,1.76,18.16,5.31c4.71,3.51,8.22,8.82,10.57,15.88l62.05,171.98h-10.57l61.53-169.46c3.35-9.1,7.66-15.28,12.85-18.67,5.23-3.35,11.01-5.03,17.4-5.03,8.06,0,14.28,2.04,18.67,6.07,4.35,4.03,6.9,9.18,7.58,15.4.68,6.22-.52,13.05-3.51,20.43l-72.62,186.62c-3.35,8.74-8.14,15.32-14.36,19.67-6.22,4.35-13.53,6.54-21.95,6.54s-15.72-2.19-21.95-6.54c-6.22-4.35-11.01-10.93-14.36-19.67l-66.08-175.01h28.73l-64.56,174.49c-3.35,9.1-8.06,15.8-14.13,20.19-6.07,4.35-13.45,6.54-22.19,6.54l-.04-.08Z"/>
        <path class="cls-4" d="M2430.13,384.7c-27.93,0-51.95-5.23-72.1-15.64-20.19-10.41-35.71-25.22-46.65-44.37-10.93-19.15-16.4-41.86-16.4-68.07s5.31-47.92,15.88-67.07c10.57-19.15,25.22-34.2,43.89-45.13,18.67-10.93,39.9-16.4,63.8-16.4,17.48,0,33.2,2.87,47.16,8.58,13.97,5.71,25.9,13.97,35.79,24.7,9.9,10.77,17.48,23.78,22.7,39.1,5.23,15.32,7.82,32.52,7.82,51.71,0,6.07-2.11,10.69-6.3,13.89s-10.17,4.79-17.92,4.79h-161.88v-36.31h141.73l-8.06,7.58c0-15.44-2.27-28.41-6.82-38.82-4.55-10.41-11.09-18.39-19.67-23.94-8.58-5.55-19.23-8.34-32.04-8.34-14.13,0-26.14,3.27-36.07,9.82-9.94,6.54-17.48,15.8-22.7,27.73-5.23,11.93-7.82,26.14-7.82,42.61v3.55c0,27.57,6.46,48.16,19.43,61.77,12.93,13.61,32.04,20.43,57.26,20.43,8.74,0,18.55-1.08,29.49-3.27,10.93-2.19,21.27-5.95,31-11.33,7.06-4.03,13.29-5.79,18.67-5.31,5.39.52,9.66,2.43,12.85,5.79,3.19,3.35,5.11,7.5,5.79,12.37.68,4.87-.24,9.82-2.75,14.88-2.51,5.03-6.82,9.42-12.85,13.13-11.77,7.38-25.3,12.85-40.58,16.4-15.32,3.55-29.49,5.31-42.61,5.31l-.04-.12Z"/>
        <path class="cls-4" d="M2724.12,384.7c-20.87,0-39.1-5.23-54.71-15.64-15.64-10.41-25.98-24.38-31-41.86l5.55-12.61v36.83c0,10.41-2.71,18.39-8.06,23.94-5.39,5.55-12.93,8.3-22.7,8.3s-17.84-2.75-23.18-8.3c-5.39-5.55-8.06-13.53-8.06-23.94V51.84c0-10.41,2.67-18.31,8.06-23.7,5.39-5.39,13.13-8.06,23.18-8.06s17.92,2.71,23.46,8.06c5.55,5.39,8.34,13.29,8.34,23.7v131.12h-6.07c5.39-16.48,15.8-29.77,31.28-39.82,15.44-10.1,33.44-15.12,53.95-15.12,21.87,0,40.86,5.23,56.98,15.64,16.12,10.41,28.73,25.14,37.83,44.13,9.06,18.99,13.61,41.78,13.61,68.35s-4.55,49-13.61,68.35c-9.1,19.35-21.79,34.24-38.07,44.65-16.32,10.41-35.23,15.64-56.74,15.64l-.04-.08ZM2706.49,336.78c12.45,0,23.38-3.03,32.8-9.06,9.42-6.07,16.72-15.04,21.95-26.97,5.23-11.93,7.82-26.81,7.82-44.65,0-26.89-5.71-46.96-17.16-60.25-11.45-13.29-26.57-19.91-45.41-19.91-12.45,0-23.38,2.95-32.8,8.82-9.42,5.87-16.72,14.8-21.95,26.73-5.23,11.93-7.82,26.81-7.82,44.65,0,26.57,5.71,46.65,17.16,60.25,11.41,13.61,26.57,20.43,45.41,20.43v-.04Z"/>
        <path class="cls-4" d="M2915.77,474.48c-10.1,0-17.84-2.71-23.18-8.06-5.39-5.39-8.06-13.29-8.06-23.7V160.82c0-10.41,2.67-18.31,8.06-23.7,5.39-5.39,12.93-8.06,22.7-8.06s17.84,2.71,23.18,8.06,8.06,13.29,8.06,23.7v39.34l-5.55-15.12c5.03-17.16,15.4-30.92,31-41.34,15.64-10.41,33.88-15.64,54.71-15.64s40.42,5.23,56.74,15.64c16.32,10.41,29.01,25.14,38.07,44.13,9.06,18.99,13.61,41.78,13.61,68.35s-4.55,49-13.61,68.35c-9.1,19.35-21.71,34.24-37.83,44.65-16.12,10.41-35.15,15.64-56.98,15.64-20.51,0-38.51-5.11-53.95-15.4-15.48-10.25-25.9-23.62-31.28-40.1h6.07v113.48c0,10.41-2.75,18.31-8.34,23.7-5.55,5.39-13.37,8.06-23.46,8.06l.04-.08ZM3009.1,336.78c12.45,0,23.38-3.03,32.8-9.06,9.42-6.07,16.72-15.04,21.95-26.97s7.82-26.81,7.82-44.65c0-26.89-5.71-46.96-17.16-60.25-11.45-13.29-26.57-19.91-45.41-19.91-12.45,0-23.38,2.95-32.8,8.82-9.42,5.87-16.72,14.8-21.95,26.73-5.23,11.93-7.82,26.81-7.82,44.65,0,26.57,5.71,46.65,17.16,60.25,11.41,13.61,26.57,20.43,45.41,20.43v-.04Z"/>
        <path class="cls-4" d="M3218.38,82.61c-11.77,0-20.95-2.95-27.49-8.82-6.54-5.87-9.82-14.05-9.82-24.46s3.27-18.99,9.82-24.7c6.54-5.71,15.72-8.58,27.49-8.58s21.35,2.87,27.73,8.58c6.38,5.71,9.58,13.97,9.58,24.7s-3.19,18.59-9.58,24.46c-6.38,5.91-15.64,8.82-27.73,8.82ZM3218.38,383.19c-10.1,0-17.84-3.03-23.18-9.06-5.39-6.07-8.06-14.44-8.06-25.22v-185.1c0-11.09,2.67-19.59,8.06-25.46,5.39-5.87,13.13-8.82,23.18-8.82s17.92,2.95,23.46,8.82c5.55,5.91,8.3,14.36,8.3,25.46v185.1c0,10.77-2.71,19.15-8.06,25.22-5.39,6.07-13.29,9.06-23.7,9.06Z"/>
        <path class="cls-4" d="M3332.86,382.19c-7.38,0-13.53-2.11-18.39-6.3-4.87-4.19-7.38-9.66-7.58-16.4-.16-6.74,2.59-13.77,8.3-21.19l81.72-100.87v29.77l-76.65-94.33c-6.07-7.38-8.9-14.44-8.58-21.19.32-6.7,2.95-12.17,7.82-16.4,4.87-4.19,11.01-6.3,18.39-6.3s14.2,1.36,19.43,4.03c5.23,2.71,10.02,6.9,14.36,12.61l60.53,77.65h-22.19l61.01-77.65c4.71-5.71,9.58-9.9,14.64-12.61,5.03-2.67,11.25-4.03,18.67-4.03s13.97,2.19,18.67,6.54c4.71,4.39,7.14,9.94,7.3,16.64.16,6.74-2.79,13.81-8.82,21.19l-76.17,93.29v-28.25l81.72,99.87c6.07,7.06,8.9,13.97,8.58,20.67-.32,6.74-2.95,12.29-7.82,16.64-4.87,4.35-11.17,6.54-18.91,6.54s-13.61-1.36-18.67-4.03c-5.03-2.67-9.94-6.9-14.64-12.61l-65.56-82.72h21.19l-65.04,82.72c-4.39,5.39-9.1,9.5-14.13,12.37-5.03,2.87-11.45,4.31-19.15,4.31l-.04.04Z"/>
      </g>
    </g>
  </g>
</svg>